{
	"asset":{
		"generator":"Khronos glTF Blender I/O v5.1.20",
		"version":"2.0"
	},
	"scene":0,
	"scenes":[
		{
			"name":"Scene",
			"nodes":[
				0,
				1,
				2,
				3,
				4,
				5,
				6
			]
		}
	],
	"nodes":[
		{
			"mesh":0,
			"name":"Pfeil Norden dunkel",
			"rotation":[
				-0.70710688829422,
				0,
				0,
				0.7071066498756409
			],
			"scale":[
				0.009999999776482582,
				0.009999998845160007,
				0.009999998845160007
			],
			"translation":[
				0,
				-0.20999999344348907,
				-1.4199998378753662
			]
		},
		{
			"mesh":1,
			"name":"Pfeil Norden hell",
			"rotation":[
				-0.70710688829422,
				0,
				0,
				0.7071066498756409
			],
			"scale":[
				0.009999999776482582,
				0.009999998845160007,
				0.009999998845160007
			],
			"translation":[
				0,
				-0.20999999344348907,
				-1.4199998378753662
			]
		},
		{
			"mesh":2,
			"name":"Pfeil Norden Boden",
			"rotation":[
				-0.70710688829422,
				0,
				0,
				0.7071066498756409
			],
			"scale":[
				0.009999999776482582,
				0.009999998845160007,
				0.009999998845160007
			],
			"translation":[
				0,
				-0.20999999344348907,
				-1.4199998378753662
			]
		},
		{
			"mesh":3,
			"name":"Grau hell",
			"scale":[
				0.009999999776482582,
				0.009999999776482582,
				0.009999999776482582
			],
			"translation":[
				0,
				0,
				0.699999988079071
			]
		},
		{
			"mesh":4,
			"name":"Grau dunkel",
			"scale":[
				0.009999999776482582,
				0.009999999776482582,
				0.009999999776482582
			],
			"translation":[
				0,
				0,
				0.699999988079071
			]
		},
		{
			"mesh":5,
			"name":"Grau am dunkelsten",
			"scale":[
				0.009999999776482582,
				0.009999999776482582,
				0.009999999776482582
			],
			"translation":[
				0,
				0,
				0.699999988079071
			]
		},
		{
			"mesh":6,
			"name":"Grau Boden",
			"scale":[
				0.009999999776482582,
				0.009999999776482582,
				0.009999999776482582
			],
			"translation":[
				0,
				0,
				0.699999988079071
			]
		}
	],
	"materials":[
		{
			"name":"Material_2",
			"pbrMetallicRoughness":{
				"baseColorFactor":[
					0.6207903623580933,
					0,
					0,
					1
				],
				"metallicFactor":0,
				"roughnessFactor":0.9950000047683716
			}
		},
		{
			"name":"Material_3",
			"pbrMetallicRoughness":{
				"baseColorFactor":[
					1,
					0,
					0,
					1
				],
				"metallicFactor":0,
				"roughnessFactor":0.9950000047683716
			}
		},
		{
			"name":"Material_4",
			"pbrMetallicRoughness":{
				"baseColorFactor":[
					0.6196078658103943,
					0,
					0,
					1
				],
				"metallicFactor":0,
				"roughnessFactor":0.9950000047683716
			}
		},
		{
			"name":"Material_5",
			"pbrMetallicRoughness":{
				"baseColorFactor":[
					0.8784313797950745,
					0.8784313797950745,
					0.8784313797950745,
					1
				],
				"metallicFactor":0,
				"roughnessFactor":0.9950000047683716
			}
		},
		{
			"name":"Material_6",
			"pbrMetallicRoughness":{
				"baseColorFactor":[
					0.7098039388656616,
					0.7098039388656616,
					0.7098039388656616,
					1
				],
				"metallicFactor":0,
				"roughnessFactor":0.9950000047683716
			}
		},
		{
			"name":"Material_7",
			"pbrMetallicRoughness":{
				"baseColorFactor":[
					0.6627451181411743,
					0.6627451181411743,
					0.6627451181411743,
					1
				],
				"metallicFactor":0,
				"roughnessFactor":0.9950000047683716
			}
		},
		{
			"name":"Material_8",
			"pbrMetallicRoughness":{
				"baseColorFactor":[
					0.7098039388656616,
					0.7098039388656616,
					0.7098039388656616,
					1
				],
				"metallicFactor":0,
				"roughnessFactor":0.9950000047683716
			}
		}
	],
	"meshes":[
		{
			"name":"Mesh_2",
			"primitives":[
				{
					"attributes":{
						"POSITION":0,
						"NORMAL":1
					},
					"indices":2,
					"material":0
				}
			]
		},
		{
			"name":"Mesh_3",
			"primitives":[
				{
					"attributes":{
						"POSITION":3,
						"NORMAL":4
					},
					"indices":2,
					"material":1
				}
			]
		},
		{
			"name":"Mesh_4",
			"primitives":[
				{
					"attributes":{
						"POSITION":5,
						"NORMAL":6
					},
					"indices":7,
					"material":2
				}
			]
		},
		{
			"name":"Mesh_5",
			"primitives":[
				{
					"attributes":{
						"POSITION":8,
						"NORMAL":9
					},
					"indices":10,
					"material":3
				}
			]
		},
		{
			"name":"Mesh_6",
			"primitives":[
				{
					"attributes":{
						"POSITION":11,
						"NORMAL":12
					},
					"indices":13,
					"material":4
				}
			]
		},
		{
			"name":"Mesh_7",
			"primitives":[
				{
					"attributes":{
						"POSITION":14,
						"NORMAL":15
					},
					"indices":16,
					"material":5
				}
			]
		},
		{
			"name":"Mesh_8",
			"primitives":[
				{
					"attributes":{
						"POSITION":17,
						"NORMAL":18
					},
					"indices":19,
					"material":6
				}
			]
		}
	],
	"accessors":[
		{
			"bufferView":0,
			"componentType":5126,
			"count":7,
			"max":[
				0.0006797027308493853,
				86.84232330322266,
				42.38302993774414
			],
			"min":[
				-41.329898834228516,
				-142.73724365234375,
				-0.16292044520378113
			],
			"type":"VEC3"
		},
		{
			"bufferView":1,
			"componentType":5126,
			"count":7,
			"type":"VEC3"
		},
		{
			"bufferView":2,
			"componentType":5123,
			"count":9,
			"type":"SCALAR"
		},
		{
			"bufferView":3,
			"componentType":5126,
			"count":7,
			"max":[
				41.329898834228516,
				86.84232330322266,
				42.38302993774414
			],
			"min":[
				-0.0005974041996523738,
				-142.73724365234375,
				-0.16292044520378113
			],
			"type":"VEC3"
		},
		{
			"bufferView":4,
			"componentType":5126,
			"count":7,
			"type":"VEC3"
		},
		{
			"bufferView":5,
			"componentType":5126,
			"count":8,
			"max":[
				41.329898834228516,
				86.84232330322266,
				42.38302993774414
			],
			"min":[
				-41.329898834228516,
				-142.73724365234375,
				-0.16292044520378113
			],
			"type":"VEC3"
		},
		{
			"bufferView":6,
			"componentType":5126,
			"count":8,
			"type":"VEC3"
		},
		{
			"bufferView":7,
			"componentType":5123,
			"count":12,
			"type":"SCALAR"
		},
		{
			"bufferView":8,
			"componentType":5126,
			"count":36,
			"max":[
				180.79920959472656,
				21.27297592163086,
				111.07579040527344
			],
			"min":[
				-180.79920959472656,
				-21.27297592163086,
				-107.60214233398438
			],
			"type":"VEC3"
		},
		{
			"bufferView":9,
			"componentType":5126,
			"count":36,
			"type":"VEC3"
		},
		{
			"bufferView":10,
			"componentType":5123,
			"count":45,
			"type":"SCALAR"
		},
		{
			"bufferView":11,
			"componentType":5126,
			"count":27,
			"max":[
				180.79920959472656,
				21.27297592163086,
				111.07579040527344
			],
			"min":[
				-180.79920959472656,
				-21.27297592163086,
				-107.60214233398438
			],
			"type":"VEC3"
		},
		{
			"bufferView":12,
			"componentType":5126,
			"count":27,
			"type":"VEC3"
		},
		{
			"bufferView":13,
			"componentType":5123,
			"count":36,
			"type":"SCALAR"
		},
		{
			"bufferView":14,
			"componentType":5126,
			"count":24,
			"max":[
				180.79920959472656,
				21.27297592163086,
				111.07579040527344
			],
			"min":[
				-180.79920959472656,
				-21.27297592163086,
				-107.60214233398438
			],
			"type":"VEC3"
		},
		{
			"bufferView":15,
			"componentType":5126,
			"count":24,
			"type":"VEC3"
		},
		{
			"bufferView":16,
			"componentType":5123,
			"count":33,
			"type":"SCALAR"
		},
		{
			"bufferView":17,
			"componentType":5126,
			"count":24,
			"max":[
				180.79920959472656,
				21.27297592163086,
				111.07579040527344
			],
			"min":[
				-180.79920959472656,
				-21.27297592163086,
				-107.60214233398438
			],
			"type":"VEC3"
		},
		{
			"bufferView":18,
			"componentType":5126,
			"count":24,
			"type":"VEC3"
		},
		{
			"bufferView":19,
			"componentType":5123,
			"count":36,
			"type":"SCALAR"
		}
	],
	"bufferViews":[
		{
			"buffer":0,
			"byteLength":84,
			"byteOffset":0,
			"target":34962
		},
		{
			"buffer":0,
			"byteLength":84,
			"byteOffset":84,
			"target":34962
		},
		{
			"buffer":0,
			"byteLength":18,
			"byteOffset":168,
			"target":34963
		},
		{
			"buffer":0,
			"byteLength":84,
			"byteOffset":188,
			"target":34962
		},
		{
			"buffer":0,
			"byteLength":84,
			"byteOffset":272,
			"target":34962
		},
		{
			"buffer":0,
			"byteLength":96,
			"byteOffset":356,
			"target":34962
		},
		{
			"buffer":0,
			"byteLength":96,
			"byteOffset":452,
			"target":34962
		},
		{
			"buffer":0,
			"byteLength":24,
			"byteOffset":548,
			"target":34963
		},
		{
			"buffer":0,
			"byteLength":432,
			"byteOffset":572,
			"target":34962
		},
		{
			"buffer":0,
			"byteLength":432,
			"byteOffset":1004,
			"target":34962
		},
		{
			"buffer":0,
			"byteLength":90,
			"byteOffset":1436,
			"target":34963
		},
		{
			"buffer":0,
			"byteLength":324,
			"byteOffset":1528,
			"target":34962
		},
		{
			"buffer":0,
			"byteLength":324,
			"byteOffset":1852,
			"target":34962
		},
		{
			"buffer":0,
			"byteLength":72,
			"byteOffset":2176,
			"target":34963
		},
		{
			"buffer":0,
			"byteLength":288,
			"byteOffset":2248,
			"target":34962
		},
		{
			"buffer":0,
			"byteLength":288,
			"byteOffset":2536,
			"target":34962
		},
		{
			"buffer":0,
			"byteLength":66,
			"byteOffset":2824,
			"target":34963
		},
		{
			"buffer":0,
			"byteLength":288,
			"byteOffset":2892,
			"target":34962
		},
		{
			"buffer":0,
			"byteLength":288,
			"byteOffset":3180,
			"target":34962
		},
		{
			"buffer":0,
			"byteLength":72,
			"byteOffset":3468,
			"target":34963
		}
	],
	"buffers":[
		{
			"byteLength":3540,
			"uri":"data:application/octet-stream;base64,"
		}
	]
}
